Coordinates
version=1
nRows=24
nColumns=22
inDegrees=yes

Units are S.I. units (second, meters, Newtons, ...)
If the header above contains a line with 'inDegrees', this indicates whether rotational values are in degrees (yes) or radians (no).

endheader
time	pelvis_tilt	pelvis_list	pelvis_rotation	pelvis_tx	pelvis_ty	pelvis_tz	hip_flexion_r	hip_adduction_r	hip_rotation_r	knee_angle_r	ankle_angle_r	subtalar_angle_r	hip_flexion_l	hip_adduction_l	hip_rotation_l	knee_angle_l	ankle_angle_l	subtalar_angle_l	lumbar_extension	lumbar_bending	lumbar_rotation
      4.11000000	     -2.43457114	     -0.85902358	     -4.22302250	     -0.81073555	      0.91757965	      0.17349552	     -0.67701148	      3.43712220	     -2.92374935	    -16.12326408	     14.04402885	     -0.72735307	     25.21330791	     -4.63799789	    -16.70360166	    -17.30276936	      4.30204533	      2.28864324	    -12.18151359	     -4.17000062	      6.68765771
      4.12000000	     -2.36818089	     -0.52355161	     -4.36371348	     -0.81580708	      0.91967179	      0.17425253	     -0.50510544	      3.15392726	     -2.81075027	    -15.81416230	     13.49966244	     -0.86823654	     25.09178767	     -4.41737122	    -16.59154446	    -18.54462641	      4.13018758	      1.74809720	    -12.14451100	     -4.63931980	      6.50695216
      4.13000000	     -2.33272064	     -0.16895019	     -4.48508960	     -0.82070457	      0.92157502	      0.17489393	     -0.32418263	      2.85027122	     -2.72994366	    -15.48779420	     13.00190445	     -1.05235570	     24.99549070	     -4.15677863	    -16.32015716	    -19.87049704	      4.03359814	      1.21648576	    -12.04934644	     -5.11397782	      6.32620756
      4.14000000	     -2.32232474	      0.17383488	     -4.58686717	     -0.82546098	      0.92325959	      0.17545555	     -0.12903059	      2.55798089	     -2.66790735	    -15.17034290	     12.56059617	     -1.26331383	     24.92904529	     -3.89312735	    -15.89374469	    -21.29336732	      4.03210068	      0.67889947	    -11.91060592	     -5.56559928	      6.15622034
      4.15000000	     -2.32644320	      0.48130719	     -4.67866890	     -0.83011689	      0.92472624	      0.17595502	      0.07994165	      2.29991137	     -2.61908085	    -14.87800018	     12.14038709	     -1.47283485	     24.87864786	     -3.65096957	    -15.32324498	    -22.80008360	      4.12449492	      0.17736983	    -11.74978074	     -5.96887188	      6.01234621
      4.16000000	     -2.33766818	      0.73645196	     -4.78051141	     -0.83471187	      0.92595088	      0.17643838	      0.30978936	      2.09533981	     -2.53696069	    -14.64195860	     11.84472856	     -1.69121358	     24.84740492	     -3.46668766	    -14.68435803	    -24.40926454	      4.30739185	     -0.35553821	    -11.58203948	     -6.30650811	      5.89248118
      4.17000000	     -2.33266764	      0.92938122	     -4.90082044	     -0.83921925	      0.92699894	      0.17691555	      0.52552868	      1.95026962	     -2.43409096	    -14.43784498	     11.54573971	     -1.87009007	     24.77345314	     -3.33477101	    -13.94469964	    -26.04576616	      4.58876110	     -0.78375646	    -11.43126357	     -6.57271282	      5.84825189
      4.18000000	     -2.33829414	      1.06521388	     -5.05779258	     -0.84372604	      0.92780940	      0.17743546	      0.80163805	      1.86539751	     -2.28042614	    -14.34945974	     11.33912129	     -2.08457375	     24.71329004	     -3.28706619	    -13.25514509	    -27.74891163	      4.84517430	     -1.31043592	    -11.27956117	     -6.77291669	      5.81090485
      4.19000000	     -2.31246364	      1.14018494	     -5.25612464	     -0.84812274	      0.92848497	      0.17798706	      1.04459502	      1.84128695	     -2.07141400	    -14.28929024	     11.15880202	     -2.25741212	     24.56100783	     -3.29986593	    -12.55270183	    -29.40908088	      5.18377631	     -1.74460601	    -11.16044599	     -6.90741354	      5.84767561
      4.20000000	     -2.24501559	      1.13264635	     -5.49529234	     -0.85241870	      0.92904606	      0.17858229	      1.25273980	      1.89914408	     -1.84100892	    -14.27847356	     10.98230186	     -2.38923402	     24.31628618	     -3.41722099	    -11.92845225	    -31.04628469	      5.56424404	     -2.10215557	    -11.09229963	     -6.95187634	      5.92911915
      4.21000000	     -2.14858639	      1.08330149	     -5.77075968	     -0.85655490	      0.92949400	      0.17916982	      1.42216840	      1.99306278	     -1.58359576	    -14.28522977	     10.91623804	     -2.47605935	     23.96559845	     -3.58088950	    -11.35761998	    -32.59883524	      6.01088832	     -2.38477126	    -11.04845387	     -6.94900911	      6.07306978
      4.22000000	     -2.10455252	      0.96396156	     -6.04648484	     -0.86062448	      0.92975674	      0.17971419	      1.66201083	      2.16622697	     -1.31930824	    -14.34376760	     10.74708144	     -2.64131572	     23.63383721	     -3.82697865	    -10.83783788	    -34.10206346	      6.39840718	     -2.95365234	    -10.95312103	     -6.85438550	      6.20012236
      4.23000000	     -2.00874725	      0.78900027	     -6.33056978	     -0.86446657	      0.92999020	      0.18023012	      1.80815959	      2.38763117	     -1.05843895	    -14.37148938	     10.62355432	     -2.71812823	     23.17329656	     -4.13740338	    -10.39657196	    -35.51072767	      6.85276378	     -3.35130884	    -10.90566676	     -6.70270534	      6.33259067
      4.24000000	     -1.91876235	      0.57499299	     -6.60270607	     -0.86812624	      0.93014295	      0.18062493	      1.94100751	      2.63964061	     -0.82565550	    -14.39461387	     10.50657900	     -2.76844686	     22.66100662	     -4.48105140	     -9.99836959	    -36.81183088	      7.29941193	     -3.76218132	    -10.84713223	     -6.48864738	      6.43768361
      4.25000000	     -1.84273910	      0.32875227	     -6.85070765	     -0.87160368	      0.93023280	      0.18092480	      2.06868832	      2.91718259	     -0.63798187	    -14.41038567	     10.38650886	     -2.79357810	     22.10673400	     -4.84776426	     -9.62496327	    -37.98319380	      7.71591514	     -4.22027091	    -10.76589433	     -6.23207282	      6.52201741
      4.26000000	     -1.78117205	      0.06132070	     -7.07306749	     -0.87489625	      0.93028395	      0.18112237	      2.19202927	      3.20866508	     -0.48967815	    -14.41558216	     10.26383361	     -2.78258480	     21.50798851	     -5.22188280	     -9.27777014	    -38.99511730	      8.10960079	     -4.66776760	    -10.65971530	     -5.94391399	      6.56408727
      4.27000000	     -1.73787815	     -0.20219749	     -7.26948263	     -0.87801573	      0.93031430	      0.18121316	      2.32012349	      3.48661997	     -0.37729261	    -14.41153001	     10.14564291	     -2.73637573	     20.86618585	     -5.57405048	     -8.95967996	    -39.81020064	      8.47609446	     -5.04356886	    -10.52343243	     -5.65088805	      6.55340495
      4.28000000	     -1.71746825	     -0.44648516	     -7.44096533	     -0.88096555	      0.93034744	      0.18120438	      2.46085630	      3.73644470	     -0.30484067	    -14.39872803	     10.02290388	     -2.65557375	     20.17983626	     -5.88283074	     -8.66775511	    -40.38566528	      8.80645185	     -5.34974807	    -10.34769698	     -5.37194222	      6.50082093
      4.29000000	     -1.71548436	     -0.64985222	     -7.58720170	     -0.88376051	      0.93039418	      0.18109026	      2.61445026	      3.93514192	     -0.26326250	    -14.38076977	      9.90662302	     -2.54666203	     19.45158557	     -6.12644731	     -8.41957876	    -40.70803644	      9.11376748	     -5.52176087	    -10.13830271	     -5.13252665	      6.39713510
      4.30000000	     -1.74957495	     -0.79176975	     -7.71288649	     -0.88637619	      0.93045346	      0.18088296	      2.80114487	      4.06456631	     -0.26516092	    -14.35761715	      9.80226095	     -2.44037343	     18.68307416	     -6.28203029	     -8.22211414	    -40.72207687	      9.41384880	     -5.53466510	     -9.86460023	     -4.95665821	      6.25941159
      4.31000000	     -1.75265041	     -0.91106196	     -7.80518400	     -0.88883497	      0.93063483	      0.18055412	      2.93034374	      4.15966095	     -0.25904938	    -14.30422359	      9.67725058	     -2.21256774	     17.81546406	     -6.38222801	     -8.06988085	    -40.43630621	      9.63174424	     -5.33826418	     -9.62194576	     -4.80210957	      6.05940860
      4.32000000	     -1.79805705	     -0.93802678	     -7.88195310	     -0.89112109	      0.93081490	      0.18013428	      3.10837727	      4.15529803	     -0.28996368	    -14.25682783	      9.61030783	     -2.01370277	     16.91944525	     -6.36740415	     -7.99390223	    -39.81727163	      9.81202262	     -4.94522448	     -9.30214632	     -4.74767395	      5.85427347
      4.33000000	     -1.86028671	     -0.92935882	     -7.92869667	     -0.89326030	      0.93101964	      0.17962940	      3.28195430	      4.11546335	     -0.29913515	    -14.17905837	      9.53909190	     -1.80326388	     15.99126350	     -6.31021928	     -8.01730594	    -38.91135740	      9.92695648	     -4.39755492	     -8.95298024	     -4.72877475	      5.57925173
      4.34000000	     -1.93415933	     -0.91165314	     -7.94717423	     -0.89524987	      0.93124068	      0.17901793	      3.44058997	      4.06618693	     -0.29253367	    -14.06749974	      9.46295280	     -1.57260896	     15.02898191	     -6.22957943	     -8.10479094	    -37.73601305	     10.02006468	     -3.73023993	     -8.58518455	     -4.71078563	      5.29611804
